<?xml version="1.0" encoding="utf-8"?>
<!-- Generator: Adobe Illustrator 26.5.2, SVG Export Plug-In . SVG Version: 6.00 Build 0)  -->
<svg version="1.1" id="Layer_1" xmlns="http://www.w3.org/2000/svg" xmlns:xlink="http://www.w3.org/1999/xlink" x="0px" y="0px"
	 viewBox="0 0 992 386.5" style="enable-background:new 0 0 992 386.5;" xml:space="preserve">
<style type="text/css">
	.st0{fill:#F68D2E;}
</style>
<path class="st0" d="M130.5,208l22.1,21.9L130.7,252l-22.1-21.9L130.5,208z M57.5,220.7L74.1,237l16.3-16.5l-16.5-16.3L57.5,220.7z
	 M122.2,177.7l30.3,29.9l29.9-30.3l-30.3-29.9L122.2,177.7z M209.8,123.4l-29.9,30.3l30.1,29.7l-29.8,30.2l30.3,29.9l29.9-30.3l0,0
	l29.9-30.3l-30.3-29.9l0,0L209.8,123.4z"/>
<path d="M371.2,209.3h5.5v19.5c-8.7,5.2-24.2,8.8-33.2,8.8c-28.5,0-43.5-14.2-43.5-47.3c0-30.2,15.3-46.7,41.3-46.7
	c31.7,0,37.7,22,37.7,44v6.8h-63.6c0,22.7,10.3,32.3,28.2,32.3C353.9,226.8,367.2,225.1,371.2,209.3z M364.7,184.1
	c0-13.5-3-29.7-23.8-29.7c-18,0-25.7,12.7-25.7,29.7H364.7z M475,219.6c0,4,2,6.8,6.8,6.8h4.8v8.8c-3,0.8-6.3,1.3-9.8,1.3
	c-6.7,0-13.2-2.2-15.2-10.2c-11.7,7.3-22.5,11.2-33.2,11.2c-18,0-34.5-12.2-34.5-45c0-37.2,20.2-49,44.5-49c6.5,0,15.3,1.5,22.3,3
	v-25c0-3.8-2-4-4.5-4h-8.8v-9.2H475V219.6z M431.2,226.8c10.7,0,20.7-4.5,29.5-11.3v-57.5c-5.8-1.8-14.3-3.5-20.3-3.5
	c-24.3,0-31.3,15.7-31.3,37.7C409,216.3,417.9,226.8,431.2,226.8z M566.9,209.3h5.5v19.5c-8.7,5.2-24.2,8.8-33.2,8.8
	c-28.5,0-43.5-14.2-43.5-47.3c0-30.2,15.3-46.7,41.3-46.7c31.7,0,37.7,22,37.7,44v6.8h-63.6c0,22.7,10.3,32.3,28.2,32.3
	C549.6,226.8,562.9,225.1,566.9,209.3z M560.4,184.1c0-13.5-3-29.7-23.8-29.7c-18,0-25.7,12.7-25.7,29.7H560.4z M600.1,159.1
	c0-3.8-2-4-4.5-4h-7.3v-9.2h26.3v10.2c10-6.8,22.3-12.3,34.2-12.3c13.7,0,25.7,7.2,25.7,26.2v52.5c0,3.8,2,4,4.5,4h7.3v9.2h-37.8
	v-9.2h11.7v-52.5c0-12.7-6.2-17.8-18-17.8c-8.3,0-19.8,4.8-27.7,9.8v60.5h11.8v9.2h-37.8v-9.2h7.2c2.5,0,4.5-0.2,4.5-4V159.1z
	 M717.7,212.3c0,10,5.7,13.7,13.8,13.7c4.3,0,9.3-1,14.5-2.5v11.3c-6,1.8-12.7,2.8-19,2.8c-12.7,0-23.5-6-23.5-23.7v-57.2h-11v-7.5
	c10.8-3.5,14.8-12.8,17-24.8h8.2v21.5h29.8v10.8h-29.8V212.3z M776.9,159.1c0-3.8-2-4-4.5-4h-7.3v-9.2h25.7v17.5
	c16.3-16.5,31.3-19.7,31.3-19.7v17.8c-20.5,3.7-30.8,9.2-30.8,9.2v55.7h11.8v9.2h-37.8v-9.2h7.2c2.5,0,4.5-0.2,4.5-4V159.1z
	 M867.5,226.8c2.5,0,3.3,0,4.2-0.2v9.5c-2.7,0.5-5.5,0.8-8.3,0.8c-9.2,0-17.7-3.5-17.7-16.8v-61c0-3.8-2-4-4.5-4h-7.3v-9.2H860v70.5
	C860,223.1,861.6,226.8,867.5,226.8z M845,108.5h15.3v15.8H845V108.5z"/>
</svg>
